<svg width="400" height="300" viewBox="0 0 400 300" xmlns="http://www.w3.org/2000/svg">
  <rect width="400" height="300" fill="#0F172A"/>
  <rect width="400" height="300" fill="url(#bg3)"/>
  <defs>
    <linearGradient id="bg3" x1="0%" y1="0%" x2="100%" y2="100%">
      <stop offset="0%" stop-color="#00D9FF" stop-opacity="0.1"/>
      <stop offset="100%" stop-color="#0F172A" stop-opacity="0.9"/>
    </linearGradient>
  </defs>

  <!-- Image placeholder -->
  <rect x="150" y="80" width="100" height="80" rx="10" fill="#00D9FF" opacity="0.2" stroke="#00D9FF" stroke-width="2"/>
  <circle cx="180" cy="110" r="8" fill="#00D9FF"/>
  <path d="M160 140 Q180 125 200 140" stroke="#00D9FF" stroke-width="3" fill="none"/>

  <!-- Tools -->
  <rect x="50" y="200" width="20" height="4" fill="#00D9FF"/>
  <rect x="50" y="210" width="15" height="4" fill="#00D9FF"/>
  <circle cx="55" cy="215" r="8" fill="none" stroke="#00D9FF" stroke-width="2"/>

  <rect x="90" y="200" width="25" height="4" fill="#00D9FF"/>
  <rect x="90" y="210" width="20" height="4" fill="#00D9FF"/>

  <path d="M140 200 L160 200 L155 210 L145 210 Z" fill="#00D9FF"/>
  <circle cx="150" cy="215" r="6" fill="#00D9FF" opacity="0.5"/>

  <rect x="180" y="200" width="30" height="15" rx="2" fill="none" stroke="#00D9FF" stroke-width="2"/>
  <text x="195" y="212" text-anchor="middle" fill="#00D9FF" font-size="8">RGB</text>

  <!-- Processing arrows -->
  <path d="M280 120 L320 120 L315 115 M320 120 L315 125" stroke="#00D9FF" stroke-width="3" fill="none"/>
  <path d="M280 160 L320 160 L315 155 M320 160 L315 165" stroke="#00D9FF" stroke-width="3" fill="none"/>

  <text x="200" y="260" text-anchor="middle" fill="#00D9FF" font-size="14" font-weight="bold">Image Processing</text>
  <text x="200" y="280" text-anchor="middle" fill="#94a3b8" font-size="10">Utilities Library</text>
</svg>