<svg width="400" height="300" viewBox="0 0 400 300" xmlns="http://www.w3.org/2000/svg">
  <rect width="400" height="300" fill="#0F172A"/>
  <rect width="400" height="300" fill="url(#bg2)"/>
  <defs>
    <linearGradient id="bg2" x1="0%" y1="0%" x2="100%" y2="100%">
      <stop offset="0%" stop-color="#00D9FF" stop-opacity="0.1"/>
      <stop offset="100%" stop-color="#0F172A" stop-opacity="0.9"/>
    </linearGradient>
  </defs>

  <path d="M50 200 L100 150 L150 180 L200 120 L250 140 L300 100 L350 130" stroke="#00D9FF" stroke-width="3" fill="none"/>
  <circle cx="100" cy="150" r="4" fill="#00D9FF"/>
  <circle cx="150" cy="180" r="4" fill="#00D9FF"/>
  <circle cx="200" cy="120" r="4" fill="#00D9FF"/>
  <circle cx="250" cy="140" r="4" fill="#00D9FF"/>
  <circle cx="300" cy="100" r="4" fill="#00D9FF"/>
  <circle cx="350" cy="130" r="4" fill="#00D9FF"/>
  <polygon points="320,60 330,80 310,80" fill="#ff6b6b"/>
  <text x="320" y="75" text-anchor="middle" fill="white" font-size="10" font-weight="bold">!</text>
  <rect x="30" y="30" width="60" height="40" rx="5" fill="none" stroke="#00D9FF" stroke-width="2"/>
  <rect x="35" y="35" width="50" height="30" fill="#0F172A"/>
  <rect x="40" y="40" width="40" height="20" fill="#00D9FF" opacity="0.3"/>
  <text x="200" y="250" text-anchor="middle" fill="#00D9FF" font-size="16" font-weight="bold">Transaction Monitor</text>
  <text x="200" y="270" text-anchor="middle" fill="#94a3b8" font-size="12">Fluctuation &amp; Downtime Detector</text>
</svg>